<svg xmlns="http://www.w3.org/2000/svg" xmlns:xlink="http://www.w3.org/1999/xlink" width="678" height="511.592" viewBox="0 0 678 511.592"><defs><style>.a{fill:#2b425a;opacity:0.04;}.b{fill:#e1b08f;}.c{fill:#e6e6e6;}.d{fill:#263238;}.e{fill:#ffcfab;}.f{fill:#364a5e;}.g{fill:#283a49;}.h{fill:#845c3b;}.i{fill:#f5f5f5;}.j{opacity:0.5;mix-blend-mode:multiply;}.j,.m{isolation:isolate;}.k{fill:#455a64;}.l,.m{fill:#43b783;}.m{opacity:0.36;mix-blend-mode:screen;}.n{fill:#ffbda9;}.o{fill:#e5a693;}.p{fill:#ffc5ab;}.q{fill:#75462a;}.r{fill:#d3a479;}.s{fill:#252e33;}.t{fill:#ba8863;}.u,.v{stroke:none;}.v{fill:#64d1a0;}.w{filter:url(#a);}</style><filter id="a" x="231.092" y="112.793" width="185.879" height="170.623" filterUnits="userSpaceOnUse"><feOffset dy="3" input="SourceAlpha"/><feGaussianBlur stdDeviation="12" result="b"/><feFlood flood-color="#7affc3" flood-opacity="0.122"/><feComposite operator="in" in2="b"/><feComposite in="SourceGraphic"/></filter></defs><g transform="translate(-641 -225.408)"><ellipse class="a" cx="339" cy="65" rx="339" ry="65" transform="translate(641 607)"/><g transform="translate(626.99 126.892)"><g transform="translate(279.982 98.517)"><g transform="translate(10.102)"><path class="b" d="M228.477,166.149l-15.828,53.834,17.3,8.909L243.431,184Z" transform="translate(-198.87 -59.238)"/><path class="c" d="M243.752,152.736c-8.386.9-15.718,8.457-19.094,20.3s-7.947,30.262-7.947,30.262,9.2,10.073,21.693,7.022Z" transform="translate(-196.511 -67.028)"/><g transform="translate(0 395.526)"><path class="d" d="M229.594,351l.036-2.271c-.937,2.651-4.915,14.161-11.668,19.7-5.082,4.489-12,9.659-13.819,14.726-1.892,5.269,9.4,7.229,14.091,6.475,5.455-.877,12.54-3.852,16.443-8.5,2.746-3.266,4.523-7.159,6.487-9.731s6.442-5.4,7.529-8.4c.6-1.646-.024-5.28-.778-8.353-.691-2.82-1.44-5.92-2.4-5.672-.008.341-.027,1.731-.027,1.731-1.173,1.26-4.383,2.477-7.983,2.558C235.177,353.324,229.547,352.773,229.594,351Z" transform="translate(-203.932 -348.729)"/></g><g transform="translate(7.647 381.731)"><path class="e" d="M210.555,377.447c1.576-1.363,3.16-2.692,4.6-3.963,4.467-3.947,7.931-10.7,9.932-15.321a21.8,21.8,0,0,0,1.8-8.332l.144-9.051L243.681,340l-1,15.763h0v0l-.006.392-.081.039c-.817,3.288-8.245,11.952-12.477,17.61-2.837,3.8-8.188,8.593-14.505,9.334C209.624,383.846,206.6,381.914,210.555,377.447Z" transform="translate(-208.77 -340.002)"/></g><g transform="translate(91.555 394.219)"><path class="d" d="M277.221,354.384l-.605-2.189c-.153,2.807-.956,15.012-5.647,22.191-3.612,5.74-8.794,12.649-9.111,18.022-.332,5.59,11.054,4.29,15.344,2.243,4.986-2.378,10.947-7.226,13.384-12.782,1.715-3.908,2.322-8.144,3.482-11.165s4.66-7,4.859-10.18c.111-1.747-1.51-5.058-3.1-7.795-1.457-2.512-3.049-5.275-3.9-4.766.089.33.462,1.669.462,1.669-.771,1.54-3.508,3.612-6.94,4.7C283.231,355.042,277.675,356.1,277.221,354.384Z" transform="translate(-261.85 -347.902)"/></g><g transform="translate(96.526 381.731)"><path class="e" d="M265.842,384.058c1.129-1.751,2.275-3.473,3.3-5.1,3.173-5.046,4.594-12.505,5.213-17.5a21.784,21.784,0,0,0-.621-8.5l-2.412-8.727L286.631,340l3.927,14.2h0v0l.1.378-.066.062c.144,3.384-4.543,13.791-7.011,20.411-1.652,4.44-5.436,10.552-11.288,13.041C266.753,390.46,263.307,389.458,265.842,384.058Z" transform="translate(-264.995 -340.002)"/></g><g transform="translate(24.001 162.708)"><path class="f" d="M281.21,206.546c8.821,11.32,10.411,23.013,8.486,56.111s-2.531,60.777-2.046,62.633,7.654,17.06,10.288,29.341c3.082,14.38,3.836,67.695,3.836,67.695a15.887,15.887,0,0,1-15.351,4.085S260.878,340.553,258.4,333.1s-18.182-85.869-18.182-85.869l2.387-44.271Z" transform="translate(-206.858 -200.567)"/><path class="f" d="M226.073,245.5c1.344-15.278,4.614-41.759,4.614-41.759l39.076-2.3c6.333,9.862,3.579,26.274,1.856,41.1l-22.346,87.5c.452,4.186,4.311,13.074,0,35.6-4.815,25.155-11.468,58.289-11.468,58.289s-8.408,3.879-16.834.33c0,0-3.234-79.681-1.167-101.445C222.044,299.265,225.153,255.96,226.073,245.5Z" transform="translate(-219.115 -201.447)"/><path class="g" d="M252.754,267.575l-6.378-32.1s-9.519-3.305-15.942-8.131c0,0,5.254,6.783,11.16,10.286Z" transform="translate(-212.542 -186.408)"/></g><path class="h" d="M223.591,176.665h31.471a38.513,38.513,0,0,0,38.514-38.514h0a34.992,34.992,0,0,0-34.993-34.992h0a34.991,34.991,0,0,0-34.992,34.992Z" transform="translate(-192.515 -95.82)"/><path class="e" d="M266.885,153.44c6.067.3,10.541,1.445,14.662,13.378s12.739,57.733,9.851,62.51l-19.183-8.087-4.824-25.156C256.548,186.775,257.2,156.788,266.885,153.44Z" transform="translate(-171.694 -66.619)"/><g transform="translate(32.344 84.872)"><path class="i" d="M230.1,207.512c-.961,8.919-4.559,41.9-4.559,41.9,29.458,15.719,65.991,5.305,71.583-1.174-5.066-16.671-10.515-26.162-14.682-30.6l5.305-20.839s-13.146-18.806-.506-42.644l-15.62-1.277-22.937-.672c-5.485.307-9.393.836-9.393.836-3.516,3.286-9.055,12.324-12.645,21.516C224.33,180.485,221.826,189.954,230.1,207.512Z" transform="translate(-224.393 -152.207)"/></g><g transform="translate(88.704 86.771)"><path class="c" d="M266.533,153.458c6.911-.389,11.053,1.315,16.048,12.415s9.045,38.188,9.045,38.188-4.232,8.582-25.093,6.148L263.325,191.4S254.133,171.846,266.533,153.458Z" transform="translate(-260.047 -153.409)"/></g><path class="c" d="M277.466,187.053c-.259,1.024-7.155,10.137-10.536,12.3s5.994,5.122,7.316,10.455c2.672,10.781-5.093,22.415-31.452,23.127-6.219.168-6.487,1.483-3.272,3.4,23.421,3.844,45.724-3.381,49.993-8.327-5.066-16.671-10.515-26.162-14.682-30.6Z" transform="translate(-184.441 -47.098)"/><g transform="translate(35.729 22.577)"><path class="e" d="M234.379,112.8c-3.7,2.185-8.264,11.481-7.814,30.969.383,16.517,5.735,20.6,8.424,21.773s7.872.462,12.913-.379v9.913s.474,3.577,3.135,5.243c4.107,2.57,8.972,1.59,11.7.609,6.023-2.167,7.226-5.131,7.226-5.131l-.114-22.793s2.967,2.882,8-1.516c4.153-3.631,5.55-9.753,2.316-13.038s-9.217-2.39-11.511,2.294c0,0-2.956.24-5.914-5.248,0,0,.1-14.918-3.222-16.862C248.974,112.465,241.466,112.8,234.379,112.8Z" transform="translate(-226.534 -112.799)"/></g><g transform="translate(54.198 46.293)"><path class="d" d="M238.221,129.862A2.079,2.079,0,1,0,240.4,127.8,2.111,2.111,0,0,0,238.221,129.862Z" transform="translate(-238.218 -127.802)"/></g><g class="j" transform="translate(48.822 63.402)"><path class="b" d="M239.641,138.625l-4.824,1.538a2.489,2.489,0,0,0,3.138,1.731A2.65,2.65,0,0,0,239.641,138.625Z" transform="translate(-234.817 -138.625)"/></g><g transform="translate(37.904 37.82)"><path class="d" d="M228.329,126.514l4.2-2.913a2.455,2.455,0,0,0-3.49-.716A2.687,2.687,0,0,0,228.329,126.514Z" transform="translate(-227.911 -122.442)"/></g><g transform="translate(57.097 39.433)"><path class="d" d="M240.052,125.088l4.774,1.832a2.454,2.454,0,0,0-1.374-3.286A2.687,2.687,0,0,0,240.052,125.088Z" transform="translate(-240.052 -123.463)"/></g><g transform="translate(37.387 45.839)"><path class="d" d="M227.586,129.573a2.078,2.078,0,1,0,2.183-2.057A2.112,2.112,0,0,0,227.586,129.573Z" transform="translate(-227.583 -127.515)"/></g><g transform="translate(41.028 46.709)"><path class="b" d="M236.8,128.065l-.331,12.5-6.58-2.038Z" transform="translate(-229.886 -128.065)"/></g><g class="j" transform="translate(57.097 66.786)"><path class="b" d="M240.052,148.923c5.311-.7,16.239-3.835,17.943-8.157a11.184,11.184,0,0,1-3.832,5.514c-3.264,2.8-14.111,5.952-14.111,5.952Z" transform="translate(-240.052 -140.766)"/></g><path class="h" d="M250.5,107.727l.808-9.175a4.472,4.472,0,0,0-5.068,4.021A4.841,4.841,0,0,0,250.5,107.727Z" transform="translate(-179.37 -98.517)"/><path class="h" d="M249.554,107.67l7.43-5.443a4.472,4.472,0,0,0-6.366-1.157A4.839,4.839,0,0,0,249.554,107.67Z" transform="translate(-177.93 -97.533)"/><path class="h" d="M255.35,132.406V141.1h0a5.914,5.914,0,0,1-5.914-5.915v-8.022Z" transform="translate(-177.505 -81.883)"/><path class="h" d="M249.011,104.467h0a29.376,29.376,0,0,0-29.377,29.377v3.808h14.375a13.377,13.377,0,0,0,13.256-11.576h0l.528,11.576h0a10.638,10.638,0,0,0,10.6-9.712l.164-1.886h0a12.6,12.6,0,0,0,12.564,11.6h1.274l1.473-20.755Z" transform="translate(-194.813 -95.061)"/><path class="k" d="M275.243,130H258.821a6.9,6.9,0,0,0-6.742-5.476h-1.065a6.894,6.894,0,0,0-6.366,4.268,5.921,5.921,0,0,0-4.021-1.751,5.07,5.07,0,0,0-3.557,1.061,6.87,6.87,0,0,0-6.005-3.577H230a6.891,6.891,0,1,0,0,13.783h1.064a6.9,6.9,0,0,0,6.892-6.891,6.827,6.827,0,0,0-.389-2.186,3.8,3.8,0,0,1,3-1.029,4.552,4.552,0,0,1,3.642,1.854l.057-.035a6.893,6.893,0,0,0,6.748,8.286h1.065a6.9,6.9,0,0,0,6.892-6.891c0-.087-.022-.168-.027-.253h13.972A7.645,7.645,0,0,1,275.243,130Zm-44.179,7.145H230a5.729,5.729,0,1,1,0-11.459h1.064a5.729,5.729,0,1,1,0,11.459Zm21.015,0h-1.065a5.729,5.729,0,0,1,0-11.459h1.065a5.729,5.729,0,1,1,0,11.459Z" transform="translate(-192.795 -83.415)"/></g><g transform="translate(0 143.823)"><path class="e" d="M295.528,204.418c-4.278,5-43.2,41.1-43.2,41.1l1.339-21.808,22.676-27.374,10.393,3.345Z" transform="translate(-165.723 -185.533)"/><g transform="translate(4.585 3.97)"><g class="w" transform="matrix(1, 0, 0, 1, -270.56, -147.79)"><g class="l" transform="translate(73.01 -41.71)"><path class="u" d="M 251.01708984375 284.1225891113281 L 250.1510620117188 282.6225891113281 L 196.6756286621094 190.0000152587891 L 195.8096160888672 188.5000152587891 L 197.5416564941406 188.5000152587891 L 238.66748046875 188.5000152587891 L 239.2448120117188 188.5000152587891 L 239.5334930419922 189 L 251.01708984375 208.8897247314453 L 262.5007019042969 189 L 262.7893676757813 188.5000152587891 L 263.36669921875 188.5000152587891 L 304.4925231933594 188.5000152587891 L 306.2245483398438 188.5000152587891 L 305.3585510253906 190.0000152587891 L 251.8831176757813 282.6225891113281 L 251.01708984375 284.1225891113281 Z"/><path class="v" d="M 197.5416564941406 189.5 L 251.01708984375 282.1225891113281 L 304.4925231933594 189.5 L 263.36669921875 189.5 L 251.01708984375 210.8896789550781 L 238.66748046875 189.5 L 197.5416564941406 189.5 M 194.0775756835938 187.5 L 197.5416564941406 187.5 L 238.66748046875 187.5 L 239.8221740722656 187.5 L 240.3995056152344 188.5 L 251.01708984375 206.8897399902344 L 261.6346435546875 188.5 L 262.2120056152344 187.5 L 263.36669921875 187.5 L 304.4925231933594 187.5 L 307.9566040039063 187.5 L 306.2245483398438 190.5 L 252.7491302490234 283.1225891113281 L 251.01708984375 286.1226196289063 L 249.2850494384766 283.1225891113281 L 195.8096008300781 190.5 L 194.0775756835938 187.5 Z"/></g></g><path class="f" d="M256.668,189.5l-12.35,21.39-12.35-21.39H212.233l32.086,55.573L276.4,189.5Z" transform="translate(-190.843 -189.5)"/></g><circle class="m" cx="23" cy="23" r="23" transform="translate(33.028 36.769)"/><path class="e" d="M266.071,217.682c-5.294,3.18-14.341,3.266-20.43,3.539s-13.606,9.583-8.666,13.337c4.363,3.316,15.681,6.321,25.2-1.445Z" transform="translate(-175.57 -173.133)"/><path class="e" d="M206.658,204.615c-1.459,1.162-1.187,4.338-.292,8.391.843,3.829,4.3,10.341,9.183,12.265,2.221.876,11.908,1.17,16.57-3.843,4.943-5.316,4.543-14.394-2.55-12.795-9.4,2.12-20.4.416-20.4.416C208.365,207.46,207.867,206.773,206.658,204.615Z" transform="translate(-192.845 -180.722)"/></g></g><g transform="translate(371.586 100.541)"><g transform="translate(139.733 408.977)"><g transform="translate(24.646)"><rect class="n" width="15.579" height="22.687"/></g><g transform="translate(0 12.754)"><path class="d" d="M368.533,368.83V366.6c-1.491.65-4.954,13.863-11.135,19.5-4.913,4.483-11.617,9.658-13.321,14.655-1.774,5.2,9.334,8.067,13.925,7.253,5.335-.944,14.581-4.7,16.9-8.182s3.407-8.618,5.292-11.17,6.235-5.4,7.254-8.354c.56-1.622-.106-5.175-.893-8.177-.722-2.755-1.5-5.784-2.445-5.525,0,.335,0,1.7,0,1.7-1.13,1.254-4.259,2.5-7.788,2.634C374.043,371.021,368.514,370.569,368.533,368.83Z" transform="translate(-343.887 -366.587)"/></g></g><g transform="translate(58.959 391.362)"><g transform="translate(36.722)"><path class="n" d="M331.588,370.317l-15.569.535,1.33-22.941,15.57-.535Z" transform="translate(-316.019 -347.375)"/></g><g transform="translate(0 17.63)"><path class="d" d="M329.789,359.574c-.809.029-1.426,1.167-3.211,3.1a34.012,34.012,0,0,1-9.164,6.593c-5.833,2.921-17.175,7.412-22.308,9.725-3.206,1.445-3.056,5.318.259,7.523s11.317,3.792,20.926,1.642c5.234-1.17,12.047-6.005,16.361-5.745s12.384.2,15.567-1.995,1.909-6.881,1.01-10.909c-.982-4.395-2.389-11.268-3.843-10.969l-.106,1.831c-1.873,2.836-11.5,3.407-15.615,1.318Z" transform="translate(-292.789 -358.528)"/></g></g><g transform="translate(0 79.405)"><path class="o" d="M360.525,187.123c-7.034,6.75-48.482,28.375-50.758,28.059-3.414-.474-15.744-12.711-26.4-23.9-1.66-8.568-4.1-19.364-6.813-25.4-2.1-4.662-4.047-7.667-6.118-9.564l.711-2.909,40.12,38s44.024-33.131,50.505-35.093C368.239,154.354,367.559,180.373,360.525,187.123Z" transform="translate(-246.811 -148.069)"/><path class="p" d="M264.206,150.445c-5.389,1.344-9.483,4.976-8.593,10.789.586,3.833,6.91,6.62,10.3,3.716,2.744-2.351,10.926-7.991,14.674-5.1a9.176,9.176,0,0,1,.838,5.553c-.259,3.03,1.3,5.191,2.219,5.046s2.332-4.97,2.469-6.872c.215-2.935-1.467-11.562-14.6-13.315l.036.04A19.82,19.82,0,0,0,264.206,150.445Z" transform="translate(-255.491 -150.029)"/></g><g transform="translate(175.232 133.201)"><path class="p" d="M398.871,219.141c-.352-4.717-8.359-26.207-12.349-35.08l-20.178,9.45A107.292,107.292,0,0,0,371.681,206c3.152,6.23,6.182,10.648,6.05,17.26a21.423,21.423,0,0,1-.169,2.278l17.42,1.838C400.4,226.555,399.02,221.133,398.871,219.141Z" transform="translate(-366.344 -184.061)"/></g><g transform="translate(90.466 189.484)"><path class="f" d="M393.908,219.666c0,14.877,1.922,111.11,1.922,111.11.364,4.281,5.824,18.368,6.382,38.256.629,22.357,1.3,72.759,1.3,72.759s-7.306,7.242-17.619,0c0,0-16.988-73.569-22.219-101.521-2.436-19.315-8.53-74.726-8.53-74.726L342.5,328.622a142.816,142.816,0,0,1,1.649,22.4c0,10.262-8.966,76.923-8.966,76.923s-8.8,5.337-17.246.273c0,0-5.068-90.2-5.212-99.6-.177-11.484,8.321-108.956,8.321-108.956Z" transform="translate(-312.72 -219.666)"/><path class="g" d="M346.049,257.019l-1.807-13.47s-11.756-5.392-15.863-9.2c0,0,7.387,9.75,12.026,12.466l-5.686,66.73Z" transform="translate(-303.626 -211.141)"/></g><g transform="translate(76.022 85.75)"><path class="c" d="M348.571,154.044c-8.176-.1-19.1,7.083-28.206,14.078s-16.783,12.907-16.783,12.907c1.635,8.572,7.023,16.411,12.9,22.839l26.1-14.159S353.981,166.592,348.571,154.044Z" transform="translate(-303.583 -154.043)"/><path class="i" d="M367.4,154.747c13.968,3.364,31.694,9,37.9,21.878s15.781,33.74,15.781,33.74a56.713,56.713,0,0,1-23.128,13.67l-7.1-12.357v46.1c-10.925,11.884-49.01,17.422-72.864,0,0,0,0-63.806,0-75.94s6.742-26.712,25.359-27.793Z" transform="translate(-295.219 -154.043)"/><path class="c" d="M367.211,196.044s-7-12.154-8.523-15.079l8.523,29.337Z" transform="translate(-271.58 -138.408)"/></g><g transform="translate(91.798)"><g transform="translate(59.396 24.293)"><path class="q" d="M353.39,115.225a8.292,8.292,0,0,1,6.868,2.415c2.95,3.016,2.338,8.6,0,21.434l-9.116,1.046Z" transform="translate(-351.137 -115.165)"/></g><g transform="translate(0 19.049)"><path class="q" d="M322.05,113.44s-3.683,0-5.7-1.159c-2.8-1.608-3.53,1.573-1.995,4.336a13.021,13.021,0,0,0,10.578,7.045c.082-.4,2.616-7.121,2.616-7.121Z" transform="translate(-313.563 -111.848)"/></g><g transform="translate(9.319 13.999)"><path class="p" d="M367.51,143.908c1.353.808,3.285-1.793,4.954-3.539s7.118-4.132,9.837,1.6c2.771,5.838-3.519,13.6-7.211,16.166-4.387,3.048-7.58.656-7.58.656l-.966,22.322s-4.842,11.846-17.951,13.623-10.411-9.031-6.1-14.326l.021-8.117s-6.764,1.334-9.967.512a14.727,14.727,0,0,1-9.709-10,79.037,79.037,0,0,1-2.207-36.7c3.331-20.254,26.166-20.591,38.966-12.535S367.51,143.908,367.51,143.908Z" transform="translate(-319.458 -108.653)"/></g><g transform="translate(4.073)"><path class="q" d="M369.437,151.33c.681.013,3.269-4.284,4.954-5.817,2.335-2.125-.677-21.362-.677-21.362s2.362-7.3-2.253-12.137-13.557-4.021-20.095-4.257c-6.8-.245-14.088-.656-23.375-4.69s-9.981-4.511-11.133-.433-1.586,13.417,3.955,19.677L325.426,124s2.49,2.208,11.151,3.263,22.151-.2,24-.455c2.512-.343,3.048,2.091,4.4,8.742C366.164,141.391,367.148,151.285,369.437,151.33Z" transform="translate(-316.139 -99.797)"/></g><g transform="translate(61.126 18.87)"><path class="q" d="M352.741,118.713l8.184-4.393a4.509,4.509,0,0,0-6.195-2.049A4.879,4.879,0,0,0,352.741,118.713Z" transform="translate(-352.231 -111.735)"/></g><g transform="translate(32.37 67.128)"><path class="o" d="M334.04,152.769s12.139-2.445,16.381-4.7a14,14,0,0,0,5.866-5.8,19.109,19.109,0,0,1-3.334,6.846c-3.1,3.968-18.914,6.889-18.914,6.889Z" transform="translate(-334.04 -142.263)"/></g><g transform="translate(12.168 34.324)"><g transform="translate(23.118 9.361)"><path class="d" d="M335.885,129.967a2.435,2.435,0,1,0,2.433-2.534A2.474,2.474,0,0,0,335.885,129.967Z" transform="translate(-335.885 -127.433)"/></g><g transform="translate(26.139 0.196)"><path class="d" d="M337.8,123.265l5.2,2.871a3.121,3.121,0,0,0-1.212-4.143A2.9,2.9,0,0,0,337.8,123.265Z" transform="translate(-337.796 -121.635)"/></g><g transform="translate(17.749 28.387)"><path class="o" d="M338.041,139.469l-5.553,2.083a2.913,2.913,0,0,0,3.772,1.84A3.105,3.105,0,0,0,338.041,139.469Z" transform="translate(-332.488 -139.469)"/></g><path class="d" d="M321.837,126.4l4.745-3.655a2.874,2.874,0,0,0-4.124-.632A3.146,3.146,0,0,0,321.837,126.4Z" transform="translate(-321.26 -121.511)"/><g transform="translate(2.889 8.668)"><path class="d" d="M323.088,129.529A2.435,2.435,0,1,0,325.521,127,2.472,2.472,0,0,0,323.088,129.529Z" transform="translate(-323.088 -126.995)"/></g><g transform="translate(6.846 8.896)"><path class="o" d="M334.027,127.139l-.8,14.628-7.637-2.6Z" transform="translate(-325.591 -127.139)"/></g></g></g><g transform="translate(152.203 174.187)"><path class="p" d="M407.034,209.989q-10.507.244-21.011.492c-3.285,11.563-12.11,42.407-15.052,49.353a13.172,13.172,0,0,1-1.018,1.984c-2.605,4.112-6.1,4.21-11.405,7.776-1.628,1.094-7.42,4.984-6.712,8.027a2.417,2.417,0,0,0,1.355,1.691c.959.349,1.892-.39,4.379-1.853,2.175-1.28,3.5-2.058,3.678-1.853.433.493-6.83,5.236-7.983,12.618-.168,1.075-.518,3.555.933,5.5,1.755,2.354,5.074,2.48,6.231,2.526,6.646.256,12.867-4.989,16.016-10.039a55.062,55.062,0,0,0,4.112-9.1c1.407-3.72,2.667-6.448,2.961-7.192C385.853,264,394.821,241.171,407.034,209.989Z" transform="translate(-351.775 -209.989)"/></g></g><g transform="translate(138.666 107.127)"><path class="r" d="M150.141,155.555c14.385-2.634,15.02-.656,60.284,24.669,0,0,53.327-21.623,59.647-25.272s15.387-6.088,22.2-1.965a17.545,17.545,0,0,0-4.825.828c-.778.373-3.357,1.7-3.038,2.9.133.5.754.653,1.266.689a13.564,13.564,0,0,0,3.308-.164c1.257-.22,2.77-.537,3.633.4a2.312,2.312,0,0,1-.12,2.882,6.761,6.761,0,0,1-2.572,1.742l-4.676,2.2a18.17,18.17,0,0,0-3.263,1.818c-.934.707-1.728,1.592-2.692,2.259-3,2.076-6.525,1-9.679,2.34-.536.229-1.07.506-1.6.756-2.317,1.092-4.537,2.4-6.739,3.705-6.454,3.825-12.755,7.905-19.086,11.928-6.163,3.914-12.313,7.88-18.667,11.478-2.317,1.312-4.824,2.923-7.449,3.549-7.988,1.906-53.324-17.831-53.324-17.831Z" transform="translate(-83.754 -76.742)"/><g transform="translate(0 1.734)"><g transform="translate(18.639)"><path class="s" d="M18.944,0H51.722A18.944,18.944,0,0,1,70.666,18.944V45.881A18.834,18.834,0,0,1,51.832,64.714h-33A18.834,18.834,0,0,1,0,45.881V18.944A18.944,18.944,0,0,1,18.944,0Z"/></g><g transform="translate(13.36 415.817)"><path class="d" d="M136.1,370.4v-2.272c.895,2.665,5.051,14.135,11.353,19.884,5.011,4.57,11.846,9.85,13.585,14.943,1.807,5.3-9.511,7.08-14.194,6.252-5.439-.964-12.475-4.05-16.306-8.756-2.694-3.309-4.409-7.23-6.331-9.832s-6.356-5.507-7.4-8.519c-.571-1.654.107-5.277.911-8.339.735-2.809,1.533-5.9,2.493-5.634,0,.343,0,1.733,0,1.733,1.152,1.277,4.344,2.547,7.942,2.684C130.477,372.632,136.115,372.17,136.1,370.4Z" transform="translate(-116.596 -368.109)"/></g><g transform="translate(16.975 402.814)"><path class="r" d="M150.656,396.806c-1.554-1.386-3.117-2.741-4.535-4.036-4.4-4.017-7.76-10.828-9.687-15.476a21.773,21.773,0,0,1-1.668-8.359v-9.053H118.883v14.736h0v.4l.079.04c.765,3.3,8.054,12.082,12.2,17.807,2.776,3.838,8.051,8.721,14.353,9.562C151.486,403.22,154.539,401.337,150.656,396.806Z" transform="translate(-118.883 -359.883)"/></g><g transform="translate(75.32 400.158)"><path class="d" d="M175.292,360.492v-2.273c.895,2.665,5.051,14.137,11.353,19.884,5.011,4.57,11.846,9.85,13.583,14.945,1.808,5.3-9.511,7.079-14.192,6.25-5.439-.964-12.475-4.05-16.306-8.756-2.694-3.309-4.409-7.23-6.331-9.832s-6.356-5.507-7.4-8.519c-.571-1.654.108-5.277.909-8.339.737-2.809,1.535-5.9,2.494-5.634,0,.343,0,1.732,0,1.732,1.152,1.277,4.344,2.547,7.942,2.684C169.673,362.725,175.311,362.264,175.292,360.492Z" transform="translate(-155.792 -358.203)"/></g><g transform="translate(78.933 387.155)"><path class="r" d="M189.853,386.9c-1.554-1.388-3.117-2.743-4.535-4.036-4.4-4.018-7.76-10.83-9.689-15.477a21.8,21.8,0,0,1-1.666-8.359v-9.053H158.078v14.736h0v.4l.081.041c.765,3.3,8.054,12.082,12.2,17.806,2.776,3.838,8.052,8.721,14.355,9.562C190.683,393.315,193.735,391.431,189.853,386.9Z" transform="translate(-158.078 -349.977)"/></g><g transform="translate(12.852 167.306)"><path class="f" d="M123.558,214.834c-12.314,26.9.444,121.644.444,121.644-.37,4.364-5.36,12.953-7.219,32.164-2.2,22.7,3.448,79.691,3.448,79.691a17.188,17.188,0,0,0,16.053.637s15.139-85.837,17.984-108.4c2.485-19.695,7.254-63,7.254-63l13.552,62.9s-3.479,11.034-4.293,19.439c-1.285,13.275,11.576,75.08,11.576,75.08s5.482,2.011,15.885.479c0,0,4.549-82.019,5.749-98.01C206,310.591,198.872,226.8,193.944,210.9Z" transform="translate(-116.275 -210.899)"/></g><g transform="translate(58.099 198.274)"><path class="g" d="M144.9,266.187l4-24.982s16.914-3.5,24.586-10.714c0,0-8.048,10.011-20,13.289l-4.491,19.233,7.85,58.237Z" transform="translate(-144.898 -230.49)"/></g><g transform="translate(18.639 77.065)"><path class="i" d="M143.155,154.545h0c-15.787,1.088-16.9,8.712-20.846,17.05a27.022,27.022,0,0,0-.748,20.349l11,31.827s-5.15,12.452-11.132,24.216c27.61,15.411,62.086,7.309,70.387-3.935.353-2.387-1.782-21.034-3.1-33.213,4.862-12.2,6.146-19.932,4.094-27.994-3.808-14.968-18.593-29.551-25.134-29.02Z" transform="translate(-119.936 -153.812)"/></g><path class="c" d="M133.65,238.7s3.253-12.956,4.415-15.751a5.425,5.425,0,0,1,5.591-3.707h0a16.128,16.128,0,0,1-6.9-10.288l-3.35-16.829s6.223-19.772,5.591-26.546l-15.844.917-2.05,1.424a27.678,27.678,0,0,0,.455,17.194l11,31.827s-5.15,12.452-11.132,24.216c20.349,11.358,44.413,9.938,58.994,3.909Z" transform="translate(-101.291 -69.915)"/><g transform="translate(0 78.886)"><path class="r" d="M108.207,235.626c.09-1.252,5.537-34.74,9.869-57.348,2.921-15.246,8.979-20.817,20.879-22.66l4.21-.653c5.639,18.536,1.755,26.933-5.68,39.627l-7.03,33.852-16.99,17.188C107.622,244.471,108.081,237.39,108.207,235.626Z" transform="translate(-108.144 -154.964)"/></g><g transform="translate(29.34 14.289)"><path class="r" d="M175.064,114.1c3.732,2.205,8.345,11.593,7.89,31.271-.386,16.679-5.792,20.8-8.506,21.985s-7.95.465-13.04-.383v10.009s7.034,8.169,6.592,12.758-10.156,5.675-16.739,1.192a42.6,42.6,0,0,1-10.8-11.309v-24.2s-3.437,4.589-9.056.857S125.57,143.317,128.837,140s10.308-2.265,11.622,2.316c0,0,8.116.3,18.925-5.64A30.383,30.383,0,0,0,175.064,114.1Z" transform="translate(-126.705 -114.1)"/></g><g transform="translate(62.775 39.292)"><path class="d" d="M152.048,131.994a2.1,2.1,0,1,1-2.2-2.076A2.131,2.131,0,0,1,152.048,131.994Z" transform="translate(-147.856 -129.917)"/></g><g transform="translate(67.419 55.508)"><path class="t" d="M150.9,140.175l4.87,1.554a2.513,2.513,0,0,1-3.168,1.748A2.678,2.678,0,0,1,150.9,140.175Z" transform="translate(-150.794 -140.175)"/></g><g transform="translate(79.92 30.819)"><path class="d" d="M162.946,128.669l-4.244-2.942a2.477,2.477,0,0,1,3.524-.722A2.712,2.712,0,0,1,162.946,128.669Z" transform="translate(-158.702 -124.556)"/></g><g transform="translate(78.992 37.776)"><path class="d" d="M162.309,131.037a2.1,2.1,0,1,1-2.205-2.077A2.133,2.133,0,0,1,162.309,131.037Z" transform="translate(-158.115 -128.958)"/></g><g transform="translate(73.291 38.653)"><path class="t" d="M154.509,129.513l.333,12.625,6.645-2.058Z" transform="translate(-154.509 -129.513)"/></g><g transform="translate(45.925 58.927)"><path class="t" d="M155.314,150.574c-5.364-.7-16.4-3.874-18.117-8.236a11.3,11.3,0,0,0,3.87,5.566c3.3,2.826,14.247,6.008,14.247,6.008Z" transform="translate(-137.197 -142.338)"/></g></g><g transform="translate(5.32 154.098)"><path class="r" d="M111.51,218.635l7.025-9.179,9.965-8.009c21.437,4.622,37.056,8.032,43.142,9.584a10.828,10.828,0,0,0,4.589.357c4.624-.718,4.791-4.217,10.918-7.257,1.157-.574,3.854-1.141,9.247-2.276a3.946,3.946,0,0,1,2.347.142c.591.245,1.734.918,1.75,1.674.044,2.041-8.174,3.127-8.081,4.941.006.119.065.568,1.219,1.116,4.428,2.1,8.215-2.278,13.435-.737.506.149,3.376,1,4.268,3.32.955,2.487-.911,5.235-1.992,6.829a21.2,21.2,0,0,1-15.058,9.1,51.172,51.172,0,0,1-9.753-.651c-2.524-.329-5.035-.583-7.572-.765C161,225.691,118.766,220.913,111.51,218.635Z" transform="translate(-111.51 -201.447)"/></g><path class="s" d="M129.608,107.84c6.887,2.882,5.335,8.792,2.453,15.68s-6,12.143-12.886,9.263a13.518,13.518,0,0,1,10.433-24.943Z" transform="translate(-106.561 -102.322)"/><path class="s" d="M128.3,115.638l2.411-11.5a5.7,5.7,0,0,0-7.028,4.328A6.172,6.172,0,0,0,128.3,115.638Z" transform="translate(-99.192 -103.963)"/></g></g></g></svg>